Coordinates
version=1
nRows=54
nColumns=12
inDegrees=yes

Units are S.I. units (second, meters, Newtons, ...)
Angles are in degrees

endheader
time	SC_y	SC_z	SC_x	AC_y	AC_z	AC_x	GH_y	GH_z	GH_yy	EL_x	PS_y
       0.0              -13.42          3.313          55.42          49.11          7.609          8.734          62.05          7.354         -91.52          49.13          53.09
   0.04152              -13.43          3.314          55.42           49.1          7.608          8.733          62.02          7.352          -91.5          49.14           53.1
   0.08305              -13.43          3.314          55.41           49.1          7.608          8.733          61.99           7.35         -91.48          49.15          53.11
    0.1246              -13.44          3.315          55.41           49.1          7.608          8.732          61.96          7.349         -91.46          49.16          53.13
    0.1661              -13.45          3.315           55.4           49.1          7.607          8.731          61.92          7.347         -91.44          49.17          53.14
    0.2076              -13.45          3.316           55.4          49.09          7.607           8.73          61.89          7.344         -91.41          49.18          53.16
    0.2491              -13.46          3.317           55.4          49.09          7.607          8.729          61.85          7.342         -91.39          49.19          53.17
    0.2907              -13.47          3.317          55.39          49.09          7.606          8.728           61.8           7.34         -91.36          49.21          53.19
    0.3322              -13.48          3.318          55.39          49.08          7.606          8.727          61.76          7.337         -91.33          49.22          53.21
    0.3737              -13.48          3.319          55.38          49.08          7.605          8.726          61.71          7.334         -91.29          49.23          53.23
    0.4152              -13.49          3.319          55.38          49.07          7.605          8.725          61.66          7.331         -91.26          49.25          53.25
    0.4568               -13.5           3.32          55.37          49.07          7.604          8.723           61.6          7.328         -91.22          49.26          53.27
    0.4983              -13.51          3.321          55.36          49.06          7.604          8.722          61.54          7.324         -91.18          49.28           53.3
    0.5398              -13.52          3.322          55.36          49.06          7.603           8.72          61.47           7.32         -91.13           49.3          53.33
    0.5813              -13.54          3.323          55.35          49.05          7.602          8.719           61.4          7.316         -91.09          49.32          53.36
    0.6229              -13.55          3.324          55.34          49.05          7.601          8.717          61.32          7.312         -91.03          49.34          53.39
    0.6644              -13.57          3.326          55.33          49.04          7.601          8.715          61.24          7.307         -90.98          49.37          53.42
    0.7059              -13.58          3.327          55.32          49.03            7.6          8.712          61.14          7.302         -90.92          49.39          53.46
    0.7474               -13.6          3.328          55.31          49.02          7.599           8.71          61.04          7.296         -90.85          49.42           53.5
     0.789              -13.62           3.33           55.3          49.01          7.598          8.707          60.93           7.29         -90.77          49.45          53.54
    0.8305              -13.64          3.332          55.29           49.0          7.596          8.705          60.81          7.283         -90.69          49.49          53.59
     0.872              -13.66          3.334          55.28          48.99          7.595          8.701          60.68          7.275          -90.6          49.53          53.65
    0.9135              -13.69          3.336          55.26          48.98          7.594          8.698          60.53          7.267          -90.5          49.57          53.71
    0.9551              -13.72          3.338          55.24          48.97          7.592          8.694          60.37          7.257          -90.4          49.61          53.77
    0.9966              -13.75          3.341          55.22          48.95           7.59           8.69          60.19          7.247         -90.27          49.67          53.85
     1.038              -13.78          3.344           55.2          48.94          7.588          8.685          59.99          7.235         -90.14          49.72          53.93
      1.08              -13.82          3.347          55.18          48.92          7.586          8.679          59.76          7.222         -89.99          49.79          54.02
     1.121              -13.87          3.351          55.15           48.9          7.583          8.673           59.5          7.207         -89.82          49.86          54.12
     1.163              -13.92          3.355          55.12          48.87           7.58          8.667          59.22          7.191         -89.62          49.94          54.24
     1.204              -13.97           3.36          55.09          48.85          7.577          8.659          58.89          7.172          -89.4          50.04          54.37
     1.246              -14.04          3.366          55.05          48.82          7.573           8.65          58.52          7.151         -89.15          50.14          54.52
     1.287              -14.11          3.372          55.01          48.78          7.569           8.64          58.09          7.126         -88.87          50.26           54.7
     1.329               -14.2          3.379          54.96          48.74          7.564          8.628          57.59          7.098         -88.54           50.4           54.9
      1.37               -14.3          3.388           54.9           48.7          7.558          8.614          57.02          7.065         -88.15          50.57          55.13
     1.412              -14.41          3.398          54.83          48.64          7.552          8.598          56.35          7.026          -87.7          50.76           55.4
     1.453              -14.55           3.41          54.74          48.58          7.544          8.579          55.56           6.98         -87.17          50.99          55.73
     1.495              -14.71          3.424          54.65           48.5          7.534          8.557          54.61          6.926         -86.54          51.25          56.11
     1.536              -14.91           3.44          54.53          48.41          7.523           8.53          53.49          6.861         -85.78          51.57          56.57
     1.578              -15.14           3.46          54.39           48.3           7.51          8.498          52.12          6.783         -84.87          51.96          57.12
     1.619              -15.43          3.485          54.22          48.16          7.493          8.458          50.45          6.687         -83.75          52.44           57.8
     1.661              -15.79          3.516           54.0          47.99          7.472          8.409          48.39          6.569         -82.37          53.03          58.63
     1.703              -16.23          3.554          53.74          47.78          7.447          8.348          45.83          6.421         -80.65          53.76          59.67
     1.744              -16.79          3.601           53.4          47.52          7.415          8.271          42.59          6.235         -78.48          54.68          60.98
     1.786               -17.5          3.662          52.98          47.18          7.374          8.173          38.48          5.999         -75.72          55.85          62.65
     1.827              -18.41           3.74          52.43          46.75          7.321          8.047          33.22          5.697          -72.2          57.35          64.79
     1.869              -19.58           3.84          51.73           46.2          7.254          7.886          26.47          5.308         -67.67          59.27          67.52
      1.91              -21.08          3.968          50.84           45.5          7.168          7.681          17.84          4.813         -61.89          61.73          71.02
     1.952              -22.95          4.128          49.71          44.61           7.06          7.423          6.995          4.189         -54.62          64.82          75.42
     1.993              -25.24          4.324          48.34          43.53          6.928          7.108         -6.222           3.43         -45.76          68.58          80.78
     2.035              -27.89           4.55          46.75          42.28          6.775          6.743         -21.54          2.549         -35.49          72.94           87.0
     2.076              -30.76          4.796          45.04          40.93           6.61          6.348         -38.13          1.596         -24.37          77.67          93.73
     2.118              -33.63          5.041          43.32          39.58          6.444          5.953         -54.72         0.6422         -13.25          82.39          100.5
     2.159              -36.28          5.268          41.73          38.33          6.291          5.588         -70.04        -0.2384         -2.985          86.76          106.7
     2.201              -38.57          5.463          40.36          37.25          6.159          5.273         -83.26         -0.998          5.874          90.52          112.0
